HIERARCHY
ROOT Hips
{
	OFFSET -3.958830 18.904000 13.208200
	CHANNELS 6 Xposition Yposition Zposition Zrotation Yrotation Xrotation 
	JOINT LHipJoint
	{
		OFFSET 0.000000 0.000000 0.000000
		CHANNELS 3 Zrotation Yrotation Xrotation
		JOINT LeftUpLeg
		{
			OFFSET 1.800000 -1.400000 0.085000
			CHANNELS 3 Zrotation Yrotation Xrotation
			JOINT LeftLeg
			{
				OFFSET 2.215000 -6.000000 0.000000
				CHANNELS 3 Zrotation Yrotation Xrotation
				JOINT LeftFoot
				{
					OFFSET 2.500000 -6.900000 0.000000
					CHANNELS 3 Zrotation Yrotation Xrotation
					JOINT LeftToeBase
					{
						OFFSET 0.200000 -0.500000 1.950000
						CHANNELS 3 Zrotation Yrotation Xrotation
						End Site
						{
							OFFSET 0.000000 0.000000 0.000000
						}
					}
				}
			}
		}
	}
	JOINT RHipJoint
	{
		OFFSET 0.000000 0.000000 0.000000
		CHANNELS 3 Zrotation Yrotation Xrotation
		JOINT RightUpLeg
		{
			OFFSET -1.800000 -1.400000 0.085000
			CHANNELS 3 Zrotation Yrotation Xrotation
			JOINT RightLeg
			{
				OFFSET -2.215000 -6.000000 0.000000
				CHANNELS 3 Zrotation Yrotation Xrotation
				JOINT RightFoot
				{
					OFFSET -2.500000 -6.900000 0.000000
					CHANNELS 3 Zrotation Yrotation Xrotation
					JOINT RightToeBase
					{
						OFFSET -0.200000 -0.500000 1.950000
						CHANNELS 3 Zrotation Yrotation Xrotation
						End Site
						{
							OFFSET 0.000000 0.000000 0.000000
						}
					}
				}
			}
		}
	}
	JOINT LowerBack
	{
		OFFSET 0.000000 0.000000 0.000000
		CHANNELS 3 Zrotation Yrotation Xrotation
		JOINT Spine
		{
			OFFSET -0.087000 1.940000 -0.288900
			CHANNELS 3 Zrotation Yrotation Xrotation
			JOINT Spine1
			{
				OFFSET 0.000000 1.950000 0.060000
				CHANNELS 3 Zrotation Yrotation Xrotation
				JOINT Neck
				{
					OFFSET 0.000000 0.000000 0.000000
					CHANNELS 3 Zrotation Yrotation Xrotation
					JOINT Neck1
					{
						OFFSET 0.000000 1.600000 0.340000
						CHANNELS 3 Zrotation Yrotation Xrotation
						JOINT Head
						{
							OFFSET 0.000000 1.667000 -0.240000
							CHANNELS 3 Zrotation Yrotation Xrotation
							End Site
							{
								OFFSET 0.000000 0.000000 0.000000
							}
						}
					}
				}
				JOINT LeftShoulder
				{
					OFFSET 0.000000 0.000000 0.000000
					CHANNELS 3 Zrotation Yrotation Xrotation
					JOINT LeftArm
					{
						OFFSET 2.700000 1.550000 -0.730000
						CHANNELS 3 Zrotation Yrotation Xrotation
						JOINT LeftForeArm
						{
							OFFSET 5.450000 0.000000 0.000000
							CHANNELS 3 Zrotation Yrotation Xrotation
							JOINT LeftHand
							{
								OFFSET 3.450000 0.000000 0.000000
								CHANNELS 3 Zrotation Yrotation Xrotation
								JOINT LeftHandIndex1
								{
									OFFSET 0.750000 0.000000 0.000000
									CHANNELS 3 Zrotation Yrotation Xrotation
									End Site
									{
										OFFSET 0.000000 0.000000 0.000000
									}
								}
							}
						}
					}
				}
				JOINT RightShoulder
				{
					OFFSET 0.000000 0.000000 0.000000
					CHANNELS 3 Zrotation Yrotation Xrotation
					JOINT RightArm
					{
						OFFSET -2.700000 1.550000 -0.730000
						CHANNELS 3 Zrotation Yrotation Xrotation
						JOINT RightForeArm
						{
							OFFSET -5.450000 0.000000 0.000000
							CHANNELS 3 Zrotation Yrotation Xrotation
							JOINT RightHand
							{
								OFFSET -3.450000 0.000000 0.000000
								CHANNELS 3 Zrotation Yrotation Xrotation
								JOINT RightHandIndex1
								{
									OFFSET -0.750000 0.000000 0.000000
									CHANNELS 3 Zrotation Yrotation Xrotation
									End Site
									{
										OFFSET 0.000000 0.000000 0.000000
									}
								}
							}
						}
					}
				}
			}
		}
	}
}
MOTION
Frames: 8
Frame Time: 0.016667
-0.780610 17.057770 -5.305540 -0.795704 5.897321 -9.815386 -15.693489 14.840803 2.937833 2.653240 -0.177156 -4.704173 -3.974004 6.180355 17.075929 -0.903251 5.124128 2.741671 0.355770 0.049850 0.245140 17.656079 -9.704116 2.847567 -10.531715 3.166985 -17.380917 18.804145 -12.084640 30.037027 -0.792685 -5.722792 2.173747 0.210790 0.287430 0.186370 -2.070072 -6.274210 -7.520675 -9.230124 0.764258 30.749952 9.288047 -0.173536 9.849503 -8.519954 -8.413970 -9.792811 -32.770125 21.398703 44.353103 6.397340 8.543680 -23.607080 -2.490534 -1.655380 3.274652 -29.547642 -16.884635 2.073281 -115.891050 -62.050485 75.711822 -3.843225 3.093192 1.010390 -0.066790 0.103720 -0.029100 18.913646 7.848273 3.218870 41.395561 6.045048 -9.010069 35.418792 35.160255 8.018393 1.851560 -1.054610 -0.453320 0.599350 0.401540 -0.341140 
-0.730040 17.046690 -5.302760 -0.108923 5.653066 -9.503450 -15.698852 14.750948 3.001293 2.192452 -0.193459 -4.382266 -5.229383 6.404621 16.607398 -0.812301 5.099908 2.744431 0.400170 0.107980 0.278250 17.657104 -9.664567 2.879289 -11.863911 3.242784 -18.768273 19.121142 -12.491079 31.203462 -0.868376 -5.866674 2.119155 0.192870 0.217090 0.182410 -2.063249 -6.160256 -7.611819 -8.461398 0.209213 31.414502 8.237069 -0.762498 8.883086 -6.630036 -8.445280 -10.416421 -33.231916 21.534510 47.156117 6.584240 7.515190 -24.761190 -5.053408 -2.379149 3.482534 -34.026777 -13.956265 0.405419 -103.940785 -56.959426 57.648643 -3.724775 3.190003 1.046290 -0.137760 0.179900 -0.012690 18.253700 8.717598 3.680130 42.419243 5.511256 -9.938078 36.962283 35.605038 8.237638 1.908743 -1.032428 -0.396320 0.591140 0.351060 -0.323040 
-0.685230 17.036190 -5.292170 0.410400 5.481785 -8.879827 -15.704809 14.668546 3.061231 1.867126 -0.270225 -4.430185 -6.457536 6.595891 16.159528 -0.694427 5.028882 2.763008 0.453530 0.186630 0.305320 17.654787 -9.630756 2.920923 -12.797165 3.304126 -20.137575 19.202452 -12.687538 31.977207 -0.928084 -5.931954 2.101938 0.173340 0.140120 0.185820 -2.050630 -6.045682 -7.704977 -7.663447 -0.388160 31.510707 7.377299 -1.365617 7.602018 -4.870609 -8.337764 -10.815217 -32.870842 21.302709 50.013454 6.411250 6.608330 -25.165470 -7.618662 -2.717914 3.519185 -38.194585 -10.713399 -1.711001 -93.106420 -51.754231 43.435185 -3.597855 3.221895 1.048800 -0.197840 0.251020 0.014950 17.808477 9.121419 4.040533 43.536011 4.754615 -10.697262 38.185297 35.857611 8.369480 1.967285 -1.044546 -0.311900 0.552910 0.283480 -0.295060 
-0.646000 17.026040 -5.274330 0.680913 5.317313 -7.828639 -15.686355 14.553590 3.109664 1.721444 -0.418285 -4.901674 -7.674773 6.724470 15.561722 -0.556507 4.895395 2.811663 0.521200 0.283630 0.336230 17.674232 -9.632960 2.981396 -13.211204 3.413808 -21.673662 18.991701 -12.681779 32.526120 -0.968553 -5.928432 2.118881 0.156560 0.067920 0.193000 -2.101173 -5.812320 -7.798223 -6.459687 -1.202362 30.885643 6.375110 -2.061021 6.160072 -3.404429 -8.196147 -10.965452 -31.726389 20.720510 52.295894 6.242310 5.873790 -24.591420 -9.873861 -2.488331 3.492447 -41.902338 -7.394922 -3.741788 -83.866711 -46.982492 32.918374 -3.489113 3.247025 1.013790 -0.243360 0.308280 0.058620 17.539385 8.861499 4.105709 44.762752 4.056419 -11.069925 39.070244 35.701145 8.392853 2.033322 -1.094614 -0.207750 0.491330 0.192280 -0.256450 
-0.612410 17.020880 -5.247230 0.858048 5.117452 -6.494551 -15.662893 14.432984 3.160523 1.651680 -0.588648 -5.580689 -8.882261 6.809870 14.794819 -0.453924 4.782463 2.855189 0.545630 0.326150 0.340170 17.698238 -9.649206 3.038459 -13.234950 3.558787 -23.166082 18.483330 -12.514575 32.880494 -0.967929 -5.867613 2.157005 0.130690 0.028990 0.199350 -2.162671 -5.555502 -7.886751 -5.193137 -1.987104 29.637449 5.490031 -2.642047 4.770790 -2.247513 -8.029819 -10.877649 -30.098972 19.753339 53.884811 5.935920 5.202440 -23.430620 -11.743733 -1.775701 3.331018 -45.279819 -4.435699 -5.452554 -75.310817 -42.690856 24.808974 -3.433454 3.240741 0.973890 -0.261080 0.335160 0.088710 17.375865 8.094293 3.990774 46.032380 3.365791 -11.229889 39.531996 35.227973 8.306731 2.085399 -1.130366 -0.137710 0.439530 0.135480 -0.225730 
-0.584700 17.016450 -5.212710 0.993350 4.905208 -4.857377 -15.633070 14.302623 3.209090 1.520716 -0.789896 -6.508154 -9.888818 6.809814 13.939395 -0.365741 4.651723 2.911960 0.542100 0.331860 0.334650 17.728724 -9.682785 3.095577 -12.966106 3.716385 -24.692494 17.727356 -12.167270 32.966444 -0.930439 -5.736757 2.216974 0.096290 0.013390 0.205720 -2.240387 -5.260188 -7.967108 -3.945233 -2.698020 27.777721 4.681737 -3.121312 3.536152 -1.376748 -7.825677 -10.568119 -27.954242 18.324004 54.492957 5.556300 4.621610 -21.640400 -13.104649 -0.614385 3.076675 -48.383629 -1.847946 -6.860512 -67.417240 -38.807859 18.603830 -3.411485 3.226492 0.917680 -0.257570 0.338500 0.109220 17.160126 6.842988 3.705269 47.512052 2.673161 -11.270016 39.573749 34.613404 8.122600 2.137910 -1.166988 -0.085130 0.387730 0.092930 -0.197110 
-0.562600 17.020480 -5.175170 0.933158 4.556728 -3.269354 -15.593589 14.181458 3.250667 1.563635 -0.956984 -7.425967 -10.739213 6.769265 13.028602 -0.307844 4.539498 2.968441 0.518380 0.313240 0.311450 17.767043 -9.736114 3.134629 -12.331762 3.904086 -25.844928 16.805373 -11.676729 32.767288 -0.873054 -5.545298 2.303988 0.062970 0.020270 0.201920 -2.340858 -4.952494 -8.027590 -2.538582 -3.326235 25.796776 3.940967 -3.481240 2.580813 -0.727194 -7.658902 -10.207274 -25.876735 16.862570 54.213919 5.151140 4.177690 -19.885480 -14.097574 0.544640 2.856137 -51.234200 0.494488 -8.229810 -59.980152 -35.491695 13.787550 -3.411202 3.190200 0.867420 -0.242680 0.322410 0.126960 16.917698 5.608331 3.376476 48.910789 2.152119 -11.258199 39.037728 33.617674 7.694229 2.174283 -1.186674 -0.060450 0.356580 0.071160 -0.175260 
-0.548440 17.029810 -5.141440 0.717109 4.389799 -1.633051 -15.546890 14.063812 3.281322 1.666865 -1.164190 -8.563942 -11.319759 6.663036 12.215531 -0.272865 4.416052 3.025839 0.483990 0.279330 0.277000 17.812968 -9.795055 3.165188 -11.475813 4.057189 -26.792377 15.912622 -11.108254 32.173465 -0.795982 -5.307957 2.403112 0.032470 0.037840 0.198890 -2.465441 -4.649958 -8.063978 -1.066739 -3.943184 23.661914 3.285631 -3.846331 1.862542 -0.307505 -7.506942 -9.741557 -23.831478 15.313538 52.912880 4.781490 3.769190 -17.932820 -14.640646 1.747629 2.606265 -53.884671 2.282566 -9.357245 -52.840950 -32.405173 9.950657 -3.427396 3.159246 0.810830 -0.217580 0.289480 0.139850 16.604875 4.275038 2.978702 50.375242 1.758508 -11.226486 38.053143 32.592284 7.163556 2.203609 -1.212004 -0.046860 0.321260 0.061160 -0.156580 
